<?xml version="1.0" standalone="no"?>
<!DOCTYPE svg PUBLIC "-//W3C//DTD SVG 20010904//EN"
 "http://www.w3.org/TR/2001/REC-SVG-20010904/DTD/svg10.dtd">
<svg version="1.0" xmlns="http://www.w3.org/2000/svg"
 width="1271.000000pt" height="1280.000000pt" viewBox="0 0 1271.000000 1280.000000"
 preserveAspectRatio="xMidYMid meet">
<g transform="translate(0.000000,1280.000000) scale(0.100000,-0.100000)"
fill="#000000" stroke="none">
<path d="M10980 11260 c-47 -4 -148 -13 -225 -19 -435 -37 -748 -110 -901
-210 -120 -78 -265 -252 -404 -487 -400 -671 -785 -1802 -1140 -3344 -29 -124
-57 -231 -62 -237 -15 -19 -2626 -19 -2651 0 -16 11 9 142 323 1712 187 935
340 1703 340 1707 0 4 -15 8 -32 10 -31 3 -33 5 -33 43 0 22 3 57 7 79 l7 39
-57 -6 c-31 -4 -149 -18 -262 -31 -742 -89 -1622 -143 -1939 -118 -332 26
-575 103 -784 248 -91 64 -89 67 -57 -96 99 -513 391 -908 753 -1019 157 -48
472 -50 867 -6 74 9 141 13 149 10 10 -4 12 -18 8 -53 -6 -57 -493 -2508 -501
-2520 -3 -5 -128 -12 -278 -15 -901 -19 -1252 -193 -1533 -758 -72 -146 -132
-295 -123 -304 3 -3 35 9 71 26 91 42 103 34 70 -49 -14 -35 -23 -65 -21 -68
3 -2 61 21 129 52 434 199 812 302 1218 334 179 13 274 13 289 -2 7 -7 12 -21
12 -32 0 -21 -27 -156 -461 -2336 -336 -1686 -357 -1807 -329 -1903 7 -26 33
-69 63 -105 29 -33 60 -72 69 -85 10 -14 39 -35 65 -48 44 -22 60 -24 188 -23
166 2 331 32 520 95 149 50 375 148 375 163 0 6 -5 27 -10 46 -20 67 -40 185
-40 237 0 110 36 324 170 998 77 385 241 1211 364 1835 198 995 228 1137 247
1153 20 16 98 17 1330 17 1218 0 1310 -1 1316 -17 7 -17 2 -52 -42 -328 -59
-372 -84 -673 -92 -1075 -19 -1050 169 -1715 611 -2155 282 -282 550 -385 996
-385 476 0 815 107 1041 330 144 142 246 360 275 590 l7 54 -27 -17 c-41 -28
-49 -14 -41 72 3 42 9 84 11 94 9 28 -13 20 -114 -44 -183 -115 -391 -203
-559 -235 -174 -33 -405 -8 -545 59 -294 142 -429 401 -490 937 -14 132 -14
682 1 930 30 486 116 1129 156 1169 13 13 54 17 228 22 250 8 349 28 494 103
214 111 352 288 442 570 31 95 66 264 58 273 -3 2 -17 -3 -31 -12 -24 -16 -26
-16 -33 0 -3 10 -2 54 4 99 5 45 8 84 6 88 -2 4 -43 -16 -91 -44 -290 -168
-552 -270 -777 -304 -132 -20 -150 -13 -142 54 20 168 180 846 292 1237 326
1142 787 2095 1331 2757 35 43 64 80 64 83 0 3 -29 5 -65 5 -81 0 -82 7 -15
91 43 54 55 82 32 78 -4 -1 -45 -5 -92 -9z"/>
</g>
</svg>
